<?xml version="1.0" encoding="UTF-8" standalone="no"?>
<svg
   xmlns:dc="http://purl.org/dc/elements/1.1/"
   xmlns:cc="http://creativecommons.org/ns#"
   xmlns:rdf="http://www.w3.org/1999/02/22-rdf-syntax-ns#"
   xmlns:svg="http://www.w3.org/2000/svg"
   xmlns="http://www.w3.org/2000/svg"
   xmlns:sodipodi="http://sodipodi.sourceforge.net/DTD/sodipodi-0.dtd"
   xmlns:inkscape="http://www.inkscape.org/namespaces/inkscape"
   viewBox="0 0 1920 3200"
   version="1.1"
   id="svg27"
   sodipodi:docname="cross-android-screen.svg"
   width="960"
   height="1600"
   inkscape:export-filename="/Users/ntilau/Downloads/cross/res/screen/android/splash-port-ldpi.png"
   inkscape:export-xdpi="96"
   inkscape:export-ydpi="96"
   inkscape:version="0.92.2 5c3e80d, 2017-08-06">
  <metadata
     id="metadata31">
    <rdf:RDF>
      <cc:Work
         rdf:about="">
        <dc:format>image/svg+xml</dc:format>
        <dc:type
           rdf:resource="http://purl.org/dc/dcmitype/StillImage" />
        <dc:title></dc:title>
      </cc:Work>
    </rdf:RDF>
  </metadata>
  <sodipodi:namedview
     pagecolor="#ffffff"
     bordercolor="#666666"
     borderopacity="1"
     objecttolerance="10"
     gridtolerance="10"
     guidetolerance="10"
     inkscape:pageopacity="0"
     inkscape:pageshadow="2"
     inkscape:window-width="1151"
     inkscape:window-height="749"
     id="namedview29"
     showgrid="false"
     scale-x="2"
     inkscape:zoom="0.335"
     inkscape:cx="480"
     inkscape:cy="800"
     inkscape:window-x="0"
     inkscape:window-y="0"
     inkscape:window-maximized="0"
     inkscape:current-layer="svg27" />
  <defs
     id="defs13">
    <clipPath
       id="e">
      <circle
         cx="400"
         cy="400"
         r="400"
         id="circle2"
         style="fill:none" />
    </clipPath>
    <linearGradient
       id="d"
       x1="634.78998"
       x2="190.05"
       y1="225.31"
       y2="670.04999"
       gradientUnits="userSpaceOnUse">
      <stop
         offset="0"
         id="stop5" />
      <stop
         stop-opacity="0"
         offset="1"
         id="stop7" />
    </linearGradient>
    <mask
       id="f"
       x="0"
       y="0"
       width="800"
       height="800"
       maskUnits="userSpaceOnUse">
      <circle
         cx="400"
         cy="400"
         r="400"
         id="circle10"
         style="fill:#ffffff" />
    </mask>
  </defs>
  <rect
     style="fill:#ffffff;fill-opacity:1;stroke-width:2.8845613"
     id="rect838"
     width="1920"
     height="3200"
     x="0"
     y="-4.5474735e-13" />
  <circle
     cx="960"
     cy="1600"
     r="400"
     data-name="circle6840"
     id="circle15"
     style="fill:#1c8adb" />
  <g
     clip-path="url(#e)"
     id="g25"
     transform="translate(560,1200)">
    <path
       d="M 329.32,795.66 559.09,565.89 q 0.0654,-1.2559 0.1131,-2.5127 c -0.0349,-58.365 -28.354,-112.59 -74.931,-143.48 h -0.0275 a 124.83,124.83 0 0 1 -52.636,28.778 l 139.21,-138.37 v -7.9449 l 50.699,-49.496 v -21.853 h -50.699 v -53.071 h -23.225 l -81.398,83.524 a 93.83,93.83 0 0 0 -134.09,1.7071 l -302.72,302.72 c 55.145,134.93 161.52,203.19 299.94,229.77 z"
       id="path17"
       inkscape:connector-curvature="0"
       style="opacity:0.42000002;fill:url(#d)" />
    <g
       mask="url(#f)"
       id="g21">
      <path
         d="m 399.99,234.11 a 93.836,93.836 0 1 0 93.835,93.835 93.836,93.836 0 0 0 -93.835,-93.835 z m 84.258,185.78 a 124.3,124.3 0 0 1 -168.41,0.0662 c -46.6,30.851 -74.96,85.053 -75.04,143.42 q 0.0469,1.2567 0.1115,2.5127 h 318.18 q 0.0654,-1.2559 0.1131,-2.5127 c -0.0349,-58.365 -28.354,-112.59 -74.931,-143.48 z"
         id="path19"
         inkscape:connector-curvature="0"
         style="fill:#ffffff" />
    </g>
    <path
       d="m 570.82,231 h 50.699 v 21.853 H 570.82 v 57.441 H 547.595 V 252.853 H 496.896 V 231 h 50.699 v -53.071 h 23.225 z"
       id="path23"
       inkscape:connector-curvature="0"
       style="fill:#ffffff" />
  </g>
</svg>
