<?xml version="1.0" encoding="UTF-8"?>
<svg viewBox="0 0 800 800" xmlns="http://www.w3.org/2000/svg">
 <defs>
  <clipPath id="e">
   <circle cx="400" cy="400" r="400" fill="none"/>
  </clipPath>
  <linearGradient id="d" x1="634.79" x2="190.05" y1="225.31" y2="670.05" gradientUnits="userSpaceOnUse">
   <stop offset="0"/>
   <stop stop-opacity="0" offset="1"/>
  </linearGradient>
  <mask id="f" x="0" y="0" width="800" height="800" maskUnits="userSpaceOnUse">
   <circle cx="400" cy="400" r="400" fill="#fff"/>
  </mask>
 </defs>
 <circle cx="400" cy="400" r="400" fill="#1c8adb" data-name="circle6840"/>
 <g clip-path="url(#e)">
  <path d="m329.32 795.66 229.77-229.77q0.0654-1.2559 0.1131-2.5127c-0.0349-58.365-28.354-112.59-74.931-143.48h-0.0275a124.83 124.83 0 0 1 -52.636 28.778l139.21-138.37v-7.9449l50.699-49.496v-21.853h-50.699v-53.071h-23.225l-81.398 83.524a93.83 93.83 0 0 0 -134.09 1.7071l-302.72 302.72c55.145 134.93 161.52 203.19 299.94 229.77z" fill="url(#d)" opacity=".42"/>
  <g mask="url(#f)">
   <path d="m399.99 234.11a93.836 93.836 0 1 0 93.835 93.835 93.836 93.836 0 0 0 -93.835 -93.835zm84.258 185.78a124.3 124.3 0 0 1 -168.41 0.0662c-46.6 30.851-74.96 85.053-75.04 143.42q0.0469 1.2567 0.1115 2.5127h318.18q0.0654-1.2559 0.1131-2.5127c-0.0349-58.365-28.354-112.59-74.931-143.48z" fill="#fff"/>
  </g>
  <path d="m570.82 231h50.699v21.853h-50.699v57.441h-23.225v-57.441h-50.699v-21.853h50.699v-53.071h23.225z" fill="#fff"/>
 </g>
</svg>
